<svg xmlns="http://www.w3.org/2000/svg" viewBox="0 0 136 44" fill="none" role="img" aria-label="Mitto">
  <g clip-path="url(#mitto-clip)">
    <path fill="#1F0047" d="M32.2424 17.2719C28.8841 17.2719 26.1014 18.4638 24.228 20.9411C22.8535 18.5597 20.0564 17.2719 16.1224 17.2719C13.0039 17.2719 10.3844 18.4638 8.60693 20.6487V17.7585H0V43.4798H8.60693V30.3464C8.60693 25.4312 10.8354 24.2736 12.968 24.2736C14.8654 24.2736 16.4055 25.3181 16.4055 27.8199V43.4872H25.1539V29.8548C25.1539 25.4312 27.3344 24.2687 29.5149 24.2687C31.3165 24.2687 32.9285 25.3132 32.9285 27.815V43.4823H41.5642V25.2149C41.557 19.9925 38.0259 17.2719 32.2424 17.2719Z"/>
    <path fill="#1F0047" d="M49.809 15.2811C50.7296 15.2647 51.6251 14.9705 52.3834 14.4354C53.1417 13.9003 53.7291 13.148 54.0723 12.2727C54.4155 11.3973 54.4992 10.4378 54.3129 9.51394C54.1266 8.59013 53.6786 7.7431 53.0249 7.07877C52.3712 6.41444 51.5408 5.96231 50.6376 5.77891C49.7344 5.59552 48.7985 5.689 47.9469 6.04767C47.0953 6.40634 46.3658 7.01428 45.8497 7.79546C45.3335 8.57663 45.0536 9.49637 45.045 10.4397C45.0414 11.0798 45.1625 11.7142 45.4011 12.3059C45.6398 12.8975 45.9912 13.4344 46.4348 13.8852C46.8784 14.336 47.4053 14.6917 47.9847 14.9314C48.564 15.1711 49.1843 15.29 49.809 15.2811Z"/>
    <path fill="#1F0047" d="M86.0007 9.64587H78.2741V12.2927C78.2741 16.7631 76.4726 17.7584 73.8171 17.7584H67.7002V9.64833H59.9712V12.2952C59.9712 16.7656 58.1697 17.7609 55.5166 17.7609H45.3984V43.4797H54.0989V24.4849H58.8965V34.8314C58.8965 40.3463 61.8111 43.4797 67.146 43.4797H72.4786V36.8712H70.2501C68.5445 36.8712 67.6906 36.0233 67.6906 33.8361V24.4849H77.1971V34.8314C77.1971 40.3463 80.1116 43.4797 85.4466 43.4797H90.7815V36.8712H88.553C86.8451 36.8712 85.9911 36.0233 85.9911 33.8361V24.4849H90.7887V17.7584H85.9911L86.0007 9.64587Z"/>
    <path fill="#1F0047" d="M105.986 17.2719C97.4513 17.2719 91.5742 22.1305 91.5742 30.6068C91.5742 39.0831 97.4993 43.9639 105.986 43.9639C114.545 43.9639 120.47 39.1077 120.47 30.6068C120.47 22.106 114.593 17.2719 105.986 17.2719ZM105.893 37.0678C102.407 37.0678 100.179 34.4186 100.179 30.6068C100.179 26.7951 102.407 24.1212 105.893 24.1212C109.589 24.1212 111.866 26.768 111.866 30.6068C111.866 34.4456 109.589 37.0678 105.893 37.0678Z"/>
    <path fill="#FC0079" d="M135.209 8.66531L128.178 0.965644C127.917 0.675039 127.602 0.440276 127.252 0.2749C126.902 0.109524 126.523 0.016803 126.138 0.00207973C125.753 -0.0126435 125.368 0.0509224 125.007 0.189115C124.646 0.327308 124.315 0.537395 124.033 0.807258C123.752 1.07712 123.525 1.40143 123.366 1.76148C123.208 2.12153 123.12 2.51019 123.109 2.90507C123.097 3.29995 123.162 3.69323 123.3 4.06224C123.438 4.43125 123.645 4.76869 123.911 5.05509L129.107 10.7469L124.247 16.2667C123.99 16.5592 123.792 16.9007 123.665 17.2716C123.537 17.6425 123.482 18.0355 123.502 18.4283C123.523 18.821 123.618 19.2058 123.784 19.5606C123.95 19.9154 124.182 20.2333 124.467 20.4962C124.753 20.7591 125.086 20.9618 125.448 21.0927C125.81 21.2236 126.194 21.2801 126.577 21.2591C126.961 21.2381 127.336 21.14 127.683 20.9703C128.029 20.8006 128.339 20.5627 128.596 20.2701L135.257 12.7081C135.744 12.15 136.009 11.4255 136 10.6771C135.991 9.92882 135.709 9.21106 135.209 8.66531Z"/>
    <path fill="#1F0047" d="M116.807 15.522C119.426 15.522 121.549 13.3467 121.549 10.6634C121.549 7.97999 119.426 5.80469 116.807 5.80469C114.188 5.80469 112.064 7.97999 112.064 10.6634C112.064 13.3467 114.188 15.522 116.807 15.522Z"/>
  </g>
  <defs>
    <clipPath id="mitto-clip"><rect width="136" height="44" fill="white"/></clipPath>
  </defs>
</svg>
